<svg xmlns="http://www.w3.org/2000/svg" width="110" height="54" viewBox="0 0 110 54" fill="none"><g clip-path="url(#clip0_96_1145)"><path d="M18.0916 36.2946H12.0962V52.801H5.99543V36.2946H0V30.8516H18.0916V36.2946Z" fill="white"></path><path d="M42.065 49.2371H34.2466L33.0232 52.8013H26.5093L35.1702 30.8438H41.109L49.9644 52.8013H43.2722L42.0569 49.2371H42.065ZM38.1437 37.6979L35.7293 44.5037H40.5823L38.1437 37.6979Z" fill="white"></path><path d="M91.2521 30.8516L84.4465 52.8091H79.0992L74.87 42.2133L70.7218 52.8091H65.3745L58.4717 30.8516H64.9937L68.5748 43.5035L73.8329 30.9564H75.9313L81.2786 43.5116L84.7868 30.8516H91.2602H91.2521Z" fill="white"></path><path d="M103.664 30.8516H109.822V52.8091H103.664V30.8516Z" fill="white"></path><path d="M71.4429 8.83779C72.2126 5.95905 74.1004 3.50767 76.7011 2.02395C79.7312 0.290248 83.4095 0.0483363 86.6422 1.38691C89.8748 2.72549 92.3054 5.47522 93.2047 8.84586C94.1121 12.2084 93.3911 15.8048 91.2684 18.5707C89.1375 21.3366 85.8401 22.9574 82.34 22.9654C81.3516 22.9654 80.3632 22.8445 79.4071 22.5945C76.5228 21.8285 74.0598 19.9496 72.5691 17.3692C71.0783 14.7969 70.6732 11.7327 71.4429 8.86199V8.84586V8.83779Z" fill="#D0DF00"></path><path d="M64.3453 17.3449C62.8546 19.9333 60.3916 21.8203 57.4992 22.5863C56.5432 22.8363 55.5547 22.9653 54.5663 22.9572C51.2283 22.9572 48.0685 21.4816 45.9296 18.9415C43.7907 16.4014 42.8833 13.0389 43.4666 9.77306C44.0419 6.50725 46.0512 3.66076 48.9355 1.99963C51.8197 0.338505 55.3036 0.0401477 58.4309 1.17713C61.5664 2.31412 64.0294 4.77355 65.1717 7.88615C66.3141 11.0068 66.0062 14.4661 64.3372 17.3368L64.3453 17.3449Z" fill="#78D64B"></path><path d="M109.992 0.5C103.761 0.5 98.7139 5.53176 98.7139 11.7328C98.7139 17.9338 103.769 22.9655 110 22.9655V0.5H109.992Z" fill="#7AE1BF"></path></g><defs><clipPath id="clip0_96_1145"><rect width="110" height="53" fill="white" transform="translate(0 0.5)"></rect></clipPath></defs></svg>